<?xml version="1.0" encoding="utf-8"?>
<!-- Generator: Adobe Illustrator 27.0.0, SVG Export Plug-In . SVG Version: 6.00 Build 0)  -->
<svg version="1.1" id="레이어_1" xmlns="http://www.w3.org/2000/svg" xmlns:xlink="http://www.w3.org/1999/xlink" x="0px"
	 y="0px" viewBox="0 0 320 320" style="enable-background:new 0 0 320 320;" xml:space="preserve">
<style type="text/css">
	.st0{fill:#0076C0;}
	.st1{fill:#FFFFFF;}
</style>
<rect x="0" class="st0" width="320" height="320"/>
<g id="레이어_2_00000181765985297103299660000007320722192332608685_">
	<polygon class="st1" points="192.7,206.3 238.9,158.7 193.8,112.2 207.3,112.2 252.9,159 206.7,206.3 	"/>
	<path class="st1" d="M206.7,113.6L251,159l-44.9,46h-10l44.8-46.2L197,113.6H206.7 M207.8,110.8h-17.2l4.4,4.7l42,43.1l-42.8,44.1
		L194,203l-4.5,4.7h17.7l0.8-0.8l18.6-19.2l26.3-26.9l1.9-1.9l-1.9-1.9l-9.8-10.1l-34.4-35.2L207.8,110.8L207.8,110.8z"/>
	<polygon class="st1" points="165.1,206.1 119.1,159 164.9,112 178.3,112 133,158.7 179.1,206.1 	"/>
	<path class="st1" d="M175.1,113.3l-44,45.4l44.8,46.1h-10.2c-14.5-14.9-29.4-30.2-44.7-45.8l44.4-45.6H175.1 M181.6,110.6h-17.3
		l-0.8,0.9l-31.8,32.6L119,157l-1.9,1.9l1.9,1.9l44.7,45.8l0.8,0.9h17.9l-4.5-4.7l-32.9-33.7l-10.2-10.5l22.9-23.4l19.5-20.1
		l4.5-4.7L181.6,110.6z"/>
	<polygon class="st1" points="74.1,221.1 106.9,98.9 116.9,98.9 84.2,221.1 	"/>
	<path class="st1" d="M115.1,100.2c-10.7,40-21.3,79.7-32,119.5h-7.2c10.7-40.1,21.5-79.6,32-119.5H115.1 M118.7,97.5h-12.9l-0.5,2
		l-8.4,31.3l-23.6,88.2l-0.9,3.5h12.9l0.5-2.1l32-119.5C117.8,100.9,118.7,97.5,118.7,97.5z"/>
</g>
</svg>
